<mxfile host="Electron" agent="Mozilla/5.0 (X11; Linux x86_64) AppleWebKit/537.36 (KHTML, like Gecko) draw.io/24.7.17 Chrome/128.0.6613.36 Electron/32.0.1 Safari/537.36" version="24.7.17">
  <diagram id="C5RBs43oDa-KdzZeNtuy" name="Page-1">
    <mxGraphModel dx="1114" dy="658" grid="1" gridSize="10" guides="1" tooltips="1" connect="1" arrows="1" fold="1" page="1" pageScale="1" pageWidth="827" pageHeight="1169" math="0" shadow="0">
      <root>
        <mxCell id="WIyWlLk6GJQsqaUBKTNV-0" />
        <mxCell id="WIyWlLk6GJQsqaUBKTNV-1" parent="WIyWlLk6GJQsqaUBKTNV-0" />
        <mxCell id="oj3TSbaTkrmH1eNeQC1i-3" style="edgeStyle=orthogonalEdgeStyle;rounded=0;orthogonalLoop=1;jettySize=auto;html=1;entryX=0.5;entryY=0;entryDx=0;entryDy=0;" edge="1" parent="WIyWlLk6GJQsqaUBKTNV-1" source="oj3TSbaTkrmH1eNeQC1i-0" target="oj3TSbaTkrmH1eNeQC1i-2">
          <mxGeometry relative="1" as="geometry" />
        </mxCell>
        <mxCell id="oj3TSbaTkrmH1eNeQC1i-0" value="variable + library&lt;div&gt;LoRa start&lt;/div&gt;&lt;div&gt;interval = millis + 5000&lt;/div&gt;" style="rounded=0;whiteSpace=wrap;html=1;" vertex="1" parent="WIyWlLk6GJQsqaUBKTNV-1">
          <mxGeometry x="80" y="90" width="120" height="60" as="geometry" />
        </mxCell>
        <mxCell id="oj3TSbaTkrmH1eNeQC1i-4" style="edgeStyle=orthogonalEdgeStyle;rounded=0;orthogonalLoop=1;jettySize=auto;html=1;entryX=0;entryY=0.5;entryDx=0;entryDy=0;" edge="1" parent="WIyWlLk6GJQsqaUBKTNV-1" source="oj3TSbaTkrmH1eNeQC1i-2" target="oj3TSbaTkrmH1eNeQC1i-5">
          <mxGeometry relative="1" as="geometry">
            <mxPoint x="280" y="220" as="targetPoint" />
          </mxGeometry>
        </mxCell>
        <mxCell id="oj3TSbaTkrmH1eNeQC1i-6" value="false" style="edgeLabel;html=1;align=center;verticalAlign=middle;resizable=0;points=[];" vertex="1" connectable="0" parent="oj3TSbaTkrmH1eNeQC1i-4">
          <mxGeometry x="-0.04" y="-2" relative="1" as="geometry">
            <mxPoint as="offset" />
          </mxGeometry>
        </mxCell>
        <mxCell id="oj3TSbaTkrmH1eNeQC1i-9" style="edgeStyle=orthogonalEdgeStyle;rounded=0;orthogonalLoop=1;jettySize=auto;html=1;entryX=0.5;entryY=0;entryDx=0;entryDy=0;" edge="1" parent="WIyWlLk6GJQsqaUBKTNV-1" source="oj3TSbaTkrmH1eNeQC1i-2" target="oj3TSbaTkrmH1eNeQC1i-8">
          <mxGeometry relative="1" as="geometry" />
        </mxCell>
        <mxCell id="oj3TSbaTkrmH1eNeQC1i-2" value="wifi connect?" style="rhombus;whiteSpace=wrap;html=1;" vertex="1" parent="WIyWlLk6GJQsqaUBKTNV-1">
          <mxGeometry x="100" y="180" width="80" height="80" as="geometry" />
        </mxCell>
        <mxCell id="oj3TSbaTkrmH1eNeQC1i-7" style="edgeStyle=orthogonalEdgeStyle;rounded=0;orthogonalLoop=1;jettySize=auto;html=1;entryX=0.5;entryY=0;entryDx=0;entryDy=0;" edge="1" parent="WIyWlLk6GJQsqaUBKTNV-1" source="oj3TSbaTkrmH1eNeQC1i-5" target="oj3TSbaTkrmH1eNeQC1i-2">
          <mxGeometry relative="1" as="geometry">
            <Array as="points">
              <mxPoint x="420" y="220" />
              <mxPoint x="420" y="160" />
              <mxPoint x="140" y="160" />
            </Array>
          </mxGeometry>
        </mxCell>
        <mxCell id="oj3TSbaTkrmH1eNeQC1i-5" value="wifi reconnect" style="rounded=0;whiteSpace=wrap;html=1;" vertex="1" parent="WIyWlLk6GJQsqaUBKTNV-1">
          <mxGeometry x="280" y="190" width="120" height="60" as="geometry" />
        </mxCell>
        <mxCell id="oj3TSbaTkrmH1eNeQC1i-12" style="edgeStyle=orthogonalEdgeStyle;rounded=0;orthogonalLoop=1;jettySize=auto;html=1;entryX=0;entryY=0.5;entryDx=0;entryDy=0;" edge="1" parent="WIyWlLk6GJQsqaUBKTNV-1" source="oj3TSbaTkrmH1eNeQC1i-8" target="oj3TSbaTkrmH1eNeQC1i-11">
          <mxGeometry relative="1" as="geometry" />
        </mxCell>
        <mxCell id="oj3TSbaTkrmH1eNeQC1i-14" value="false" style="edgeLabel;html=1;align=center;verticalAlign=middle;resizable=0;points=[];" vertex="1" connectable="0" parent="oj3TSbaTkrmH1eNeQC1i-12">
          <mxGeometry x="-0.04" y="-1" relative="1" as="geometry">
            <mxPoint as="offset" />
          </mxGeometry>
        </mxCell>
        <mxCell id="oj3TSbaTkrmH1eNeQC1i-16" style="edgeStyle=orthogonalEdgeStyle;rounded=0;orthogonalLoop=1;jettySize=auto;html=1;entryX=0.5;entryY=0;entryDx=0;entryDy=0;" edge="1" parent="WIyWlLk6GJQsqaUBKTNV-1" source="oj3TSbaTkrmH1eNeQC1i-8" target="oj3TSbaTkrmH1eNeQC1i-15">
          <mxGeometry relative="1" as="geometry" />
        </mxCell>
        <mxCell id="oj3TSbaTkrmH1eNeQC1i-8" value="mqtt connect" style="rhombus;whiteSpace=wrap;html=1;" vertex="1" parent="WIyWlLk6GJQsqaUBKTNV-1">
          <mxGeometry x="100" y="290" width="80" height="80" as="geometry" />
        </mxCell>
        <mxCell id="oj3TSbaTkrmH1eNeQC1i-13" style="edgeStyle=orthogonalEdgeStyle;rounded=0;orthogonalLoop=1;jettySize=auto;html=1;entryX=0.5;entryY=0;entryDx=0;entryDy=0;" edge="1" parent="WIyWlLk6GJQsqaUBKTNV-1" source="oj3TSbaTkrmH1eNeQC1i-11" target="oj3TSbaTkrmH1eNeQC1i-8">
          <mxGeometry relative="1" as="geometry">
            <Array as="points">
              <mxPoint x="420" y="330" />
              <mxPoint x="420" y="270" />
              <mxPoint x="140" y="270" />
            </Array>
          </mxGeometry>
        </mxCell>
        <mxCell id="oj3TSbaTkrmH1eNeQC1i-11" value="mqtt reconnect" style="rounded=0;whiteSpace=wrap;html=1;" vertex="1" parent="WIyWlLk6GJQsqaUBKTNV-1">
          <mxGeometry x="280" y="300" width="120" height="60" as="geometry" />
        </mxCell>
        <mxCell id="oj3TSbaTkrmH1eNeQC1i-18" style="edgeStyle=orthogonalEdgeStyle;rounded=0;orthogonalLoop=1;jettySize=auto;html=1;entryX=0.5;entryY=0;entryDx=0;entryDy=0;" edge="1" parent="WIyWlLk6GJQsqaUBKTNV-1" source="oj3TSbaTkrmH1eNeQC1i-15" target="oj3TSbaTkrmH1eNeQC1i-17">
          <mxGeometry relative="1" as="geometry" />
        </mxCell>
        <mxCell id="oj3TSbaTkrmH1eNeQC1i-15" value="joystick data&lt;div&gt;joystick deadzone&lt;/div&gt;&lt;div&gt;hover pin&lt;/div&gt;&lt;div&gt;payload pin&lt;/div&gt;" style="shape=parallelogram;perimeter=parallelogramPerimeter;whiteSpace=wrap;html=1;fixedSize=1;" vertex="1" parent="WIyWlLk6GJQsqaUBKTNV-1">
          <mxGeometry x="80" y="400" width="120" height="60" as="geometry" />
        </mxCell>
        <mxCell id="oj3TSbaTkrmH1eNeQC1i-20" style="edgeStyle=orthogonalEdgeStyle;rounded=0;orthogonalLoop=1;jettySize=auto;html=1;entryX=0.5;entryY=0;entryDx=0;entryDy=0;" edge="1" parent="WIyWlLk6GJQsqaUBKTNV-1" source="oj3TSbaTkrmH1eNeQC1i-17" target="oj3TSbaTkrmH1eNeQC1i-19">
          <mxGeometry relative="1" as="geometry" />
        </mxCell>
        <mxCell id="oj3TSbaTkrmH1eNeQC1i-28" style="edgeStyle=orthogonalEdgeStyle;rounded=0;orthogonalLoop=1;jettySize=auto;html=1;entryX=0;entryY=0.5;entryDx=0;entryDy=0;" edge="1" parent="WIyWlLk6GJQsqaUBKTNV-1" source="oj3TSbaTkrmH1eNeQC1i-17" target="oj3TSbaTkrmH1eNeQC1i-21">
          <mxGeometry relative="1" as="geometry" />
        </mxCell>
        <mxCell id="oj3TSbaTkrmH1eNeQC1i-17" value="millis &amp;lt; interval&lt;div&gt;&amp;amp; !kickback&lt;/div&gt;" style="rhombus;whiteSpace=wrap;html=1;" vertex="1" parent="WIyWlLk6GJQsqaUBKTNV-1">
          <mxGeometry x="85" y="494.5" width="110" height="90" as="geometry" />
        </mxCell>
        <mxCell id="oj3TSbaTkrmH1eNeQC1i-40" style="edgeStyle=orthogonalEdgeStyle;rounded=0;orthogonalLoop=1;jettySize=auto;html=1;entryX=0.5;entryY=0;entryDx=0;entryDy=0;" edge="1" parent="WIyWlLk6GJQsqaUBKTNV-1" source="oj3TSbaTkrmH1eNeQC1i-19" target="oj3TSbaTkrmH1eNeQC1i-2">
          <mxGeometry relative="1" as="geometry">
            <Array as="points">
              <mxPoint x="140" y="760" />
              <mxPoint x="660" y="760" />
              <mxPoint x="660" y="160" />
              <mxPoint x="140" y="160" />
            </Array>
          </mxGeometry>
        </mxCell>
        <mxCell id="oj3TSbaTkrmH1eNeQC1i-19" value="send data" style="rounded=0;whiteSpace=wrap;html=1;" vertex="1" parent="WIyWlLk6GJQsqaUBKTNV-1">
          <mxGeometry x="90" y="620" width="100" height="40" as="geometry" />
        </mxCell>
        <mxCell id="oj3TSbaTkrmH1eNeQC1i-27" style="edgeStyle=orthogonalEdgeStyle;rounded=0;orthogonalLoop=1;jettySize=auto;html=1;entryX=0.5;entryY=0;entryDx=0;entryDy=0;" edge="1" parent="WIyWlLk6GJQsqaUBKTNV-1" source="oj3TSbaTkrmH1eNeQC1i-21" target="oj3TSbaTkrmH1eNeQC1i-25">
          <mxGeometry relative="1" as="geometry" />
        </mxCell>
        <mxCell id="oj3TSbaTkrmH1eNeQC1i-31" style="edgeStyle=orthogonalEdgeStyle;rounded=0;orthogonalLoop=1;jettySize=auto;html=1;entryX=0;entryY=0.5;entryDx=0;entryDy=0;" edge="1" parent="WIyWlLk6GJQsqaUBKTNV-1" source="oj3TSbaTkrmH1eNeQC1i-21" target="oj3TSbaTkrmH1eNeQC1i-30">
          <mxGeometry relative="1" as="geometry" />
        </mxCell>
        <mxCell id="oj3TSbaTkrmH1eNeQC1i-21" value="&lt;span style=&quot;background-color: initial;&quot;&gt;kickback&lt;/span&gt;" style="rhombus;whiteSpace=wrap;html=1;" vertex="1" parent="WIyWlLk6GJQsqaUBKTNV-1">
          <mxGeometry x="260" y="507" width="110" height="65" as="geometry" />
        </mxCell>
        <mxCell id="oj3TSbaTkrmH1eNeQC1i-41" style="edgeStyle=orthogonalEdgeStyle;rounded=0;orthogonalLoop=1;jettySize=auto;html=1;entryX=0.5;entryY=0;entryDx=0;entryDy=0;" edge="1" parent="WIyWlLk6GJQsqaUBKTNV-1" source="oj3TSbaTkrmH1eNeQC1i-22" target="oj3TSbaTkrmH1eNeQC1i-2">
          <mxGeometry relative="1" as="geometry">
            <Array as="points">
              <mxPoint x="315" y="760" />
              <mxPoint x="660" y="760" />
              <mxPoint x="660" y="160" />
              <mxPoint x="140" y="160" />
            </Array>
          </mxGeometry>
        </mxCell>
        <mxCell id="oj3TSbaTkrmH1eNeQC1i-22" value="recieve data&lt;div&gt;mqtt write&lt;/div&gt;" style="rounded=0;whiteSpace=wrap;html=1;" vertex="1" parent="WIyWlLk6GJQsqaUBKTNV-1">
          <mxGeometry x="265" y="700" width="100" height="40" as="geometry" />
        </mxCell>
        <mxCell id="oj3TSbaTkrmH1eNeQC1i-26" style="edgeStyle=orthogonalEdgeStyle;rounded=0;orthogonalLoop=1;jettySize=auto;html=1;entryX=0.5;entryY=0;entryDx=0;entryDy=0;" edge="1" parent="WIyWlLk6GJQsqaUBKTNV-1" source="oj3TSbaTkrmH1eNeQC1i-25" target="oj3TSbaTkrmH1eNeQC1i-22">
          <mxGeometry relative="1" as="geometry" />
        </mxCell>
        <mxCell id="oj3TSbaTkrmH1eNeQC1i-34" style="edgeStyle=orthogonalEdgeStyle;rounded=0;orthogonalLoop=1;jettySize=auto;html=1;entryX=0;entryY=0.5;entryDx=0;entryDy=0;" edge="1" parent="WIyWlLk6GJQsqaUBKTNV-1" source="oj3TSbaTkrmH1eNeQC1i-25" target="oj3TSbaTkrmH1eNeQC1i-33">
          <mxGeometry relative="1" as="geometry" />
        </mxCell>
        <mxCell id="oj3TSbaTkrmH1eNeQC1i-25" value="&lt;span style=&quot;background-color: initial;&quot;&gt;package?&lt;/span&gt;" style="rhombus;whiteSpace=wrap;html=1;" vertex="1" parent="WIyWlLk6GJQsqaUBKTNV-1">
          <mxGeometry x="260" y="610" width="110" height="50" as="geometry" />
        </mxCell>
        <mxCell id="oj3TSbaTkrmH1eNeQC1i-36" style="edgeStyle=orthogonalEdgeStyle;rounded=0;orthogonalLoop=1;jettySize=auto;html=1;entryX=0.5;entryY=0;entryDx=0;entryDy=0;" edge="1" parent="WIyWlLk6GJQsqaUBKTNV-1" source="oj3TSbaTkrmH1eNeQC1i-29" target="oj3TSbaTkrmH1eNeQC1i-2">
          <mxGeometry relative="1" as="geometry">
            <Array as="points">
              <mxPoint x="660" y="720" />
              <mxPoint x="660" y="160" />
              <mxPoint x="140" y="160" />
            </Array>
          </mxGeometry>
        </mxCell>
        <mxCell id="oj3TSbaTkrmH1eNeQC1i-29" value="kickback = 0&lt;div&gt;interval = millis + 5000&lt;/div&gt;" style="rounded=0;whiteSpace=wrap;html=1;" vertex="1" parent="WIyWlLk6GJQsqaUBKTNV-1">
          <mxGeometry x="405" y="700" width="100" height="40" as="geometry" />
        </mxCell>
        <mxCell id="oj3TSbaTkrmH1eNeQC1i-39" style="edgeStyle=orthogonalEdgeStyle;rounded=0;orthogonalLoop=1;jettySize=auto;html=1;entryX=0.5;entryY=0;entryDx=0;entryDy=0;" edge="1" parent="WIyWlLk6GJQsqaUBKTNV-1" source="oj3TSbaTkrmH1eNeQC1i-30" target="oj3TSbaTkrmH1eNeQC1i-2">
          <mxGeometry relative="1" as="geometry">
            <Array as="points">
              <mxPoint x="660" y="540" />
              <mxPoint x="660" y="160" />
              <mxPoint x="140" y="160" />
            </Array>
          </mxGeometry>
        </mxCell>
        <mxCell id="oj3TSbaTkrmH1eNeQC1i-30" value="&lt;div&gt;kickback = 1&lt;/div&gt;send kickback 5 round" style="rounded=0;whiteSpace=wrap;html=1;" vertex="1" parent="WIyWlLk6GJQsqaUBKTNV-1">
          <mxGeometry x="450" y="519.5" width="130" height="40" as="geometry" />
        </mxCell>
        <mxCell id="oj3TSbaTkrmH1eNeQC1i-35" style="edgeStyle=orthogonalEdgeStyle;rounded=0;orthogonalLoop=1;jettySize=auto;html=1;entryX=0.5;entryY=0;entryDx=0;entryDy=0;" edge="1" parent="WIyWlLk6GJQsqaUBKTNV-1" source="oj3TSbaTkrmH1eNeQC1i-33" target="oj3TSbaTkrmH1eNeQC1i-29">
          <mxGeometry relative="1" as="geometry" />
        </mxCell>
        <mxCell id="oj3TSbaTkrmH1eNeQC1i-37" style="edgeStyle=orthogonalEdgeStyle;rounded=0;orthogonalLoop=1;jettySize=auto;html=1;entryX=0.5;entryY=0;entryDx=0;entryDy=0;" edge="1" parent="WIyWlLk6GJQsqaUBKTNV-1" source="oj3TSbaTkrmH1eNeQC1i-33" target="oj3TSbaTkrmH1eNeQC1i-2">
          <mxGeometry relative="1" as="geometry">
            <Array as="points">
              <mxPoint x="660" y="635" />
              <mxPoint x="660" y="160" />
              <mxPoint x="140" y="160" />
            </Array>
          </mxGeometry>
        </mxCell>
        <mxCell id="oj3TSbaTkrmH1eNeQC1i-33" value="millis &amp;lt; interval" style="rhombus;whiteSpace=wrap;html=1;" vertex="1" parent="WIyWlLk6GJQsqaUBKTNV-1">
          <mxGeometry x="400" y="600" width="110" height="70" as="geometry" />
        </mxCell>
      </root>
    </mxGraphModel>
  </diagram>
</mxfile>
